# xmcd
#
# Track frame offsets: 
#        150
#        9822
#        22004
#        32197
#        44817
#        59517
#        67815
#        81347
#        94097
#        106670
#        120013
#        132479
#        145964
#        158750
#        172069
#        185767
#        199275
#        211149
#        224724
#        240376
#        255151
#
# Disc length: 3560 seconds
#
# Revision: 1
# Processed by: cddbd v1.5.2PL0 Copyright (c) Steve Scherf et al.
# Submitted via: ExactAudioCopy v0.95b4
#
DISCID=290de615
DTITLE=Teddy Wilson - Don't Blame Me [CD3]
DYEAR=2005
DGENRE=Jazz
TTITLE0=Tiger Rag
TTITLE1=Loch Lomond
TTITLE2=I'll See You In My Dreams
TTITLE3=Alice Blue Gown
TTITLE4=Coquette
TTITLE5=China Boy
TTITLE6=Melody In F
TTITLE7=When You And I Were Young, Maggie
TTITLE8=Sugar
TTITLE9=Exactly Like You
TTITLE10=Love Grows On The White Oak Tree
TTITLE11=This Is The Moment
TTITLE12=Early Session Hop
TTITLE13=Lady Of Mystery
TTITLE14=Jumpin' On The Black And Whites
TTITLE15=Little Things Mean So Much
TTITLE16=Hallelujah
TTITLE17=Wham (Re Bop Boom Bam)
TTITLE18=Sweet Lorraine
TTITLE19=Moon Ray
TTITLE20=Liza
EXTD=YEAR: 1986
EXTT0=
EXTT1=
EXTT2=
EXTT3=
EXTT4=
EXTT5=
EXTT6=
EXTT7=
EXTT8=
EXTT9=
EXTT10=
EXTT11=
EXTT12=
EXTT13=
EXTT14=
EXTT15=
EXTT16=
EXTT17=
EXTT18=
EXTT19=
EXTT20=
PLAYORDER=
